:SAMPLES-PER-SECOND 30
:FULLY-SPECIFIED
:DEGREES
251
root  67.1098 39.3505 -35.2256 5.36317 6.93347 1.53598
RightUpLeg  -15.3034 -11.6308 -1.47715
RightLeg  28.8948 -2.41584 -1.6485
RightFoot  -12.6897 -0.0582036 2.52039
RightToes  0.00048216 0.542163 -0.142577
Spine  41.7568 -0.813729 -2.1192
Spine1  8.44769 -1.70094 -0.0742945
HEad  -5.19559 6.62396 -6.20996
LeftShoulder1  11.0019 -18.3518 -43.7906
LeftArm  -10.4194 -8.20892 -19.368
LeftForeArm  19.5505 -9.46862 -6.57072
LeftHand  -0.25398 0.0180481 5.50724
RightShoulder  5.72371 11.8852 31.2371
RightArm  -0.144101 14.5099 36.9195
RightForeArm  -7.40602 13.7421 8.16528
RightHand  -1.81185 5.00395 -20.3967
LeftUpLeg  -18.8498 6.53501 -0.80455
LeftLeg  3.43384 34.3559 -7.42916
LeftFoot  4.46718 -1.07968 7.56436
LeftToes  1.06244e-005 4.65854e-005 -8.18505e-006
252
root  67.0487 39.4666 -35.2448 4.70248 7.10582 1.82607
RightUpLeg  -11.6672 -12.8413 -1.26719
RightLeg  23.5715 -4.38781 -2.34386
RightFoot  -14.4532 -0.103317 -0.394829
RightToes  0.00048216 0.542163 -0.142577
Spine  38.47 -0.985336 -1.31051
Spine1  8.09707 -1.51095 -0.312396
HEad  -2.80226 5.923 -5.54163
LeftShoulder1  11.076 -17.9917 -44.8815
LeftArm  -7.80885 -2.90669 -18.3664
LeftForeArm  18.7072 -11.1196 -6.67459
LeftHand  -0.25398 0.0180481 5.50724
RightShoulder  5.72263 11.3948 32.4619
RightArm  2.5127 9.0138 36.3856
RightForeArm  -9.32203 15.9983 7.49483
RightHand  -1.63622 4.3167 -19.7292
LeftUpLeg  -17.0467 5.39983 -0.879828
LeftLeg  0.561245 35.381 -8.65333
LeftFoot  5.93559 -1.28286 8.18756
LeftToes  1.06244e-005 4.65854e-005 -8.18505e-006
253
root  67.0233 39.5846 -35.3243 4.17802 6.70088 1.51588
RightUpLeg  -9.92687 -13.5326 -1.0648
RightLeg  20.7081 -4.15051 -1.89969
RightFoot  -13.896 -0.126799 -1.44895
RightToes  0.00048216 0.542163 -0.142577
Spine  35.3032 -1.00807 0.173961
Spine1  8.05897 -0.946018 -0.672625
HEad  -1.16927 5.12072 -5.38257
LeftShoulder1  10.9489 -17.4347 -45.5795
LeftArm  -5.89596 1.22014 -18.1533
LeftForeArm  17.8332 -12.8497 -6.40259
LeftHand  -0.25398 0.0180481 5.50724
RightShoulder  5.70232 11.0642 33.1962
RightArm  4.46321 4.38107 35.9041
RightForeArm  -10.6209 18.0595 6.75033
RightHand  -1.47313 3.71556 -18.9418
LeftUpLeg  -16.0421 5.22936 -0.473049
LeftLeg  -0.937188 35.7435 -9.12468
LeftFoot  7.01097 -1.43544 8.60786
LeftToes  1.06244e-005 4.65854e-005 -8.18505e-006
254
root  67.0116 39.7085 -35.4238 3.79991 6.17238 1.22324
RightUpLeg  -8.9778 -13.7442 -1.2534
RightLeg  19.2101 -2.85856 -0.732093
RightFoot  -12.4966 -0.0980885 -1.35708
RightToes  0.00048216 0.542163 -0.142577
Spine  32.2966 -0.771673 1.31921
Spine1  8.25363 -0.49382 -0.350386
HEad  -0.0117923 4.56416 -5.65903
LeftShoulder1  10.7601 -16.7774 -46.2728
LeftArm  -4.68217 4.64109 -18.4068
LeftForeArm  16.8719 -14.6805 -5.87609
LeftHand  -0.25398 0.0180481 5.50724
RightShoulder  5.61599 10.7067 33.573
RightArm  5.78248 0.914578 35.5186
RightForeArm  -10.617 19.3406 6.27604
RightHand  -1.32774 3.30227 -17.9009
LeftUpLeg  -15.6043 5.15918 0.0479902
LeftLeg  -0.756565 32.5212 -8.65814
LeftFoot  7.67877 -1.24968 7.1849
LeftToes  1.06244e-005 4.65854e-005 -8.18505e-006
255
root  66.9768 39.8191 -35.5121 3.2431 5.94609 1.47234
RightUpLeg  -7.67512 -13.2717 -2.08827
RightLeg  17.7664 -3.24467 0.250467
RightFoot  -11.69 -0.0844503 -1.77202
RightToes  0.00048216 0.542163 -0.142577
Spine  29.835 -0.414109 1.39104
Spine1  8.18616 -0.473605 0.751881
HEad  1.23082 4.44231 -5.94995
LeftShoulder1  10.6054 -16.2045 -46.9536
LeftArm  -3.53425 8.24349 -18.7808
LeftForeArm  15.4761 -17.0051 -5.18045
LeftHand  -0.25398 0.0180481 5.50724
RightShoulder  5.53783 10.413 33.8442
RightArm  6.70292 -2.04648 35.3563
RightForeArm  -9.77524 20.0041 6.01483
RightHand  -1.18856 2.85012 -16.9165
LeftUpLeg  -15.4214 5.23324 -0.126618
LeftLeg  1.63571 23.7286 -6.70251
LeftFoot  7.59762 -0.547273 2.96995
LeftToes  1.06244e-005 4.65854e-005 -8.18505e-006
256
root  66.9377 39.895 -35.5705 2.42508 5.74176 2.09311
RightUpLeg  -6.24638 -12.3181 -3.19835
RightLeg  16.6922 -4.67094 0.765826
RightFoot  -11.4092 -0.0786995 -2.6853
RightToes  0.00048216 0.542163 -0.142577
Spine  27.8553 -0.143745 0.946984
Spine1  7.80296 -0.572188 1.63212
HEad  2.63512 4.51844 -6.04672
LeftShoulder1  10.4355 -15.7412 -47.3228
LeftArm  -2.43223 12.0106 -19.2533
LeftForeArm  14.1745 -19.5874 -4.53812
LeftHand  -0.25398 0.0180481 5.50724
RightShoulder  5.53618 10.2772 34.221
RightArm  7.06914 -5.09617 35.5022
RightForeArm  -8.75011 20.4594 5.81289
RightHand  -1.07501 2.27316 -16.4395
LeftUpLeg  -15.3001 6.48107 -1.38048
LeftLeg  5.6849 12.2282 -3.73138
LeftFoot  5.68502 0.189541 -1.52312
LeftToes  1.06244e-005 4.65854e-005 -8.18505e-006
257
root  66.9438 39.9633 -35.5781 1.65515 5.21397 2.78123
RightUpLeg  -5.20425 -12.0114 -4.24091
RightLeg  16.2368 -4.51341 1.0868
RightFoot  -10.9872 -0.0649223 -3.09847
RightToes  0.00048216 0.542163 -0.142577
Spine  25.7897 -0.0314421 0.729155
Spine1  7.52421 -0.424874 1.46265
HEad  4.08503 4.5192 -6.02471
LeftShoulder1  10.1812 -15.2742 -47.3188
LeftArm  -1.73363 15.2043 -19.9152
LeftForeArm  13.7335 -21.5964 -4.24456
LeftHand  -0.25398 0.0180481 5.50724
RightShoulder  5.55926 10.1438 34.7768
RightArm  7.11594 -7.99528 35.8092
RightForeArm  -7.79522 20.6854 5.6901
RightHand  -1.0055 1.82468 -16.3072
LeftUpLeg  -14.7371 7.55259 -2.85781
LeftLeg  9.83764 5.43943 -0.984229
LeftFoot  2.01626 0.305352 -2.6234
LeftToes  1.06244e-005 4.65854e-005 -8.18505e-006
258
root  67.0085 40.0512 -35.5289 1.14813 4.49878 3.46628
RightUpLeg  -4.36537 -11.8578 -5.25749
RightLeg  15.7148 -3.56424 1.33674
RightFoot  -10.4475 -0.0476898 -2.94493
RightToes  0.00048216 0.542163 -0.142577
Spine  23.3687 -0.00801185 0.624145
Spine1  7.49377 -0.142765 0.719243
HEad  5.79752 4.49128 -6.00158
LeftShoulder1  9.88529 -14.7408 -47.2879
LeftArm  -1.39974 17.6644 -20.6799
LeftForeArm  14.083 -22.7391 -4.21518
LeftHand  -0.25398 0.0180481 5.50724
RightShoulder  5.50788 9.85275 35.2715
RightArm  7.48942 -10.319 36.1166
RightForeArm  -6.6958 20.4848 5.69774
RightHand  -0.94099 1.55034 -15.8553
LeftUpLeg  -13.4244 7.55088 -3.7522
LeftLeg  13.1865 5.6209 1.10947
LeftFoot  -1.68398 0.0680917 -0.664341
LeftToes  1.06244e-005 4.65854e-005 -8.18505e-006
259
root  67.1099 40.139 -35.4401 0.765884 3.79395 3.96072
RightUpLeg  -3.40148 -11.0891 -6.02144
RightLeg  14.712 -3.56604 1.38582
RightFoot  -10.0253 -0.0337403 -2.95332
RightToes  0.00048216 0.542163 -0.142577
Spine  20.7753 -0.00648324 0.431762
Spine1  7.39446 -0.000423435 0.362874
HEad  7.90789 4.70231 -6.06528
LeftShoulder1  9.61523 -14.1726 -47.4779
LeftArm  -1.61526 19.9555 -21.4493
LeftForeArm  15.0721 -23.5247 -4.25061
LeftHand  -0.25398 0.0180481 5.50724
RightShoulder  5.3598 9.47931 35.3153
RightArm  8.21282 -12.1841 36.5131
RightForeArm  -5.03776 20.1468 5.73055
RightHand  -0.80931 0.996017 -14.789
LeftUpLeg  -11.3884 8.37192 -4.14447
LeftLeg  15.2675 7.29533 2.38147
LeftFoot  -4.06731 -0.0469621 1.07091
LeftToes  1.06244e-005 4.65854e-005 -8.18505e-006
260
root  67.2351 40.1954 -35.3232 0.472504 3.04805 3.9644
RightUpLeg  -2.50807 -10.1759 -6.24151
RightLeg  13.6161 -3.8727 1.44514
RightFoot  -9.58529 -0.0144112 -3.28098
RightToes  0.00048216 0.542163 -0.142577
Spine  18.0175 -0.0790036 0.570295
Spine1  7.24988 0.0185892 0.327604
HEad  10.0646 5.19968 -6.20555
LeftShoulder1  9.33816 -13.6176 -47.6042
LeftArm  -2.50033 22.3396 -22.4492
LeftForeArm  16.5112 -24.3161 -4.33307
LeftHand  -0.25398 0.0180481 5.50724
RightShoulder  5.17158 9.15384 34.8978
RightArm  8.88529 -13.9346 37.0573
RightForeArm  -3.0102 20.3368 5.57514
RightHand  -0.615051 -0.0777344 -13.4294
LeftUpLeg  -8.63849 10.0766 -3.7704
LeftLeg  15.4583 7.37412 2.44584
LeftFoot  -5.17727 -0.0175622 0.888159
LeftToes  1.06244e-005 4.65854e-005 -8.18505e-006
